M48
;Layer_Color=9474304
;FILE_FORMAT=2:4
INCH,TZ
;TYPE=PLATED
T01F00S00C0.0079
T02F00S00C0.0118
T04F00S00C0.0280
T05F00S00C0.0335
T06F00S00C0.0402
%
T01
X21084Y38034
X21517
X21950
X22383
X22816
Y38467
Y38900
Y39333
Y39766
X22383
Y39333
Y38900
Y38467
X21950
Y38900
Y39333
Y39766
X21517
Y39333
Y38900
Y38467
X21084
Y38900
Y39333
Y39766
T02
X14300Y38200
X14250Y40350
X14300Y42000
X11950Y41450
X15800Y40450
X15700Y39450
X16250Y39400
X17050Y38600
X16950Y40500
X19750Y39500
X20100Y39550
X20150Y38500
X19800Y38200
X19050
Y36850
X19200Y35450
X18800
X18400
X20700Y36500
X22200Y37187
X22050Y35450
X23800Y36600
X24700Y35900
X25535Y36075
X25550Y37600
X25400Y38050
X24082Y38818
X24200Y39347
X23663Y39350
X23250Y40900
X24450Y41150
X24850
X26100Y41650
X28850
X29300Y42200
X29250Y40850
X29450Y39950
X28600Y38800
X28665Y38450
X29950
X27689Y37853
X27400Y39750
X31040Y42063
X30950Y36550
X21108Y40613
X20200Y41500
X31400Y40900
X32400Y37550
T04
X15050Y42000
X25600Y39300
X25650Y38450
T05
X13813Y37722
Y39691
T06
X12350Y35750
X13350
X14350
X15350
M30
