G04*
G04 #@! TF.GenerationSoftware,Altium Limited,Altium Designer,23.10.1 (27)*
G04*
G04 Layer_Color=32896*
%FSLAX44Y44*%
%MOMM*%
G71*
G04*
G04 #@! TF.SameCoordinates,AB5FA82C-F65C-42C8-8390-C989D648E836*
G04*
G04*
G04 #@! TF.FilePolarity,Positive*
G04*
G01*
G75*
%ADD10C,0.2500*%
%ADD11C,0.2000*%
%ADD12C,0.4000*%
%ADD15C,0.2540*%
%ADD54C,0.1000*%
D10*
X795690Y948240D02*
G03*
X795690Y948240I-1250J0D01*
G01*
X408850Y991710D02*
G03*
X408850Y991710I-1250J0D01*
G01*
D11*
X699549Y913940D02*
Y919940D01*
X703549Y913940D02*
Y919940D01*
X682849Y913940D02*
Y919940D01*
X678848Y913940D02*
Y919940D01*
X724249Y913940D02*
Y919940D01*
X720249Y913940D02*
Y919940D01*
X744950Y913940D02*
Y919940D01*
X740950Y913940D02*
Y919940D01*
X658148Y913940D02*
Y919940D01*
X662148Y913940D02*
Y919940D01*
X741890Y961740D02*
Y981740D01*
X791890Y961740D02*
Y981740D01*
X741890D02*
X791890D01*
X741890Y961740D02*
X791890D01*
X702670Y983173D02*
Y1000673D01*
X719700Y983120D02*
Y1000620D01*
X698140Y954207D02*
Y971707D01*
X681110Y954260D02*
Y971760D01*
X681080Y983173D02*
Y1000673D01*
X698110Y983120D02*
Y1000620D01*
X802810Y983713D02*
Y1001213D01*
X819840Y983660D02*
Y1001160D01*
X819870Y1015007D02*
Y1032507D01*
X802840Y1015060D02*
Y1032560D01*
X770787Y1017820D02*
X788287D01*
X770840Y1034850D02*
X788340D01*
X431440Y976717D02*
Y994217D01*
X414410Y976770D02*
Y994270D01*
X403100Y997210D02*
Y997460D01*
Y965960D02*
Y966210D01*
X371600Y965960D02*
X376850D01*
X397850D02*
X403100D01*
X371600Y997210D02*
Y997460D01*
Y965960D02*
Y966210D01*
Y997460D02*
X376850D01*
X397850D02*
X403100D01*
X367117Y1006200D02*
X384617D01*
X367170Y1023230D02*
X384670D01*
X398973Y1023260D02*
X416473D01*
X398920Y1006230D02*
X416420D01*
X815218Y938071D02*
Y944069D01*
X812218D01*
X811219Y943069D01*
Y941070D01*
X812218Y940070D01*
X815218D01*
X813218D02*
X811219Y938071D01*
X809220D02*
X807220D01*
X808220D01*
Y944069D01*
X809220Y943069D01*
X804221Y944069D02*
X800222D01*
Y943069D01*
X804221Y939071D01*
Y938071D01*
X647954Y938530D02*
Y944528D01*
X644955D01*
X643955Y943528D01*
Y941529D01*
X644955Y940529D01*
X647954D01*
X645955D02*
X643955Y938530D01*
X641956D02*
X639957D01*
X640956D01*
Y944528D01*
X641956Y943528D01*
X636958D02*
X635958Y944528D01*
X633959D01*
X632959Y943528D01*
Y942529D01*
X633959Y941529D01*
X632959Y940529D01*
Y939530D01*
X633959Y938530D01*
X635958D01*
X636958Y939530D01*
Y940529D01*
X635958Y941529D01*
X636958Y942529D01*
Y943528D01*
X635958Y941529D02*
X633959D01*
D12*
X785890Y969740D02*
G03*
X785890Y969740I-2000J0D01*
G01*
X486290Y1008910D02*
Y1019070D01*
X689610Y1021080D02*
Y1031240D01*
D15*
X447548Y1030224D02*
Y1036222D01*
X444549D01*
X443549Y1035222D01*
Y1033223D01*
X444549Y1032223D01*
X447548D01*
X445549D02*
X443549Y1030224D01*
X441550D02*
X439551D01*
X440550D01*
Y1036222D01*
X441550Y1035222D01*
X436552Y1030224D02*
X434552D01*
X435552D01*
Y1036222D01*
X436552Y1035222D01*
X414085Y1037000D02*
X415085Y1038000D01*
X417084D01*
X418084Y1037000D01*
Y1033002D01*
X417084Y1032002D01*
X415085D01*
X414085Y1033002D01*
X412086Y1032002D02*
X410087D01*
X411086D01*
Y1038000D01*
X412086Y1037000D01*
X407088Y1033002D02*
X406088Y1032002D01*
X404089D01*
X403089Y1033002D01*
Y1037000D01*
X404089Y1038000D01*
X406088D01*
X407088Y1037000D01*
Y1036001D01*
X406088Y1035001D01*
X403089D01*
X731061Y968928D02*
X736059D01*
X737059Y967929D01*
Y965929D01*
X736059Y964930D01*
X731061D01*
X732061Y962930D02*
X731061Y961931D01*
Y959931D01*
X732061Y958932D01*
X733060D01*
X734060Y959931D01*
Y960931D01*
Y959931D01*
X735060Y958932D01*
X736059D01*
X737059Y959931D01*
Y961931D01*
X736059Y962930D01*
X737747Y1035861D02*
Y1041859D01*
X734749D01*
X733749Y1040859D01*
Y1038860D01*
X734749Y1037860D01*
X737747D01*
X735748D02*
X733749Y1035861D01*
X731749D02*
X729750D01*
X730750D01*
Y1041859D01*
X731749Y1040859D01*
X723752Y1035861D02*
Y1041859D01*
X726751Y1038860D01*
X722752D01*
X385998Y931721D02*
Y937719D01*
X382999D01*
X382000Y936719D01*
Y934720D01*
X382999Y933720D01*
X385998D01*
X383999D02*
X382000Y931721D01*
X380000Y936719D02*
X379001Y937719D01*
X377001D01*
X376002Y936719D01*
Y935720D01*
X377001Y934720D01*
X376002Y933720D01*
Y932721D01*
X377001Y931721D01*
X379001D01*
X380000Y932721D01*
Y933720D01*
X379001Y934720D01*
X380000Y935720D01*
Y936719D01*
X379001Y934720D02*
X377001D01*
X379419Y1035779D02*
X380419Y1036779D01*
X382418D01*
X383418Y1035779D01*
Y1031781D01*
X382418Y1030781D01*
X380419D01*
X379419Y1031781D01*
X377420Y1030781D02*
X375420D01*
X376420D01*
Y1036779D01*
X377420Y1035779D01*
X372421D02*
X371422Y1036779D01*
X369422D01*
X368422Y1035779D01*
Y1034780D01*
X369422Y1033780D01*
X368422Y1032780D01*
Y1031781D01*
X369422Y1030781D01*
X371422D01*
X372421Y1031781D01*
Y1032780D01*
X371422Y1033780D01*
X372421Y1034780D01*
Y1035779D01*
X371422Y1033780D02*
X369422D01*
X445229Y983641D02*
X446229Y982642D01*
Y980642D01*
X445229Y979642D01*
X441231D01*
X440231Y980642D01*
Y982642D01*
X441231Y983641D01*
X440231Y985640D02*
Y987640D01*
Y986640D01*
X446229D01*
X445229Y985640D01*
X446229Y990639D02*
Y994638D01*
X445229D01*
X441231Y990639D01*
X440231D01*
X778590Y1043401D02*
X777591Y1042401D01*
X775591D01*
X774592Y1043401D01*
Y1047399D01*
X775591Y1048399D01*
X777591D01*
X778590Y1047399D01*
X783589Y1048399D02*
Y1042401D01*
X780590Y1045400D01*
X784588D01*
D54*
X696928Y935561D02*
G03*
X696928Y935561I-500J0D01*
G01*
X676227D02*
G03*
X676227Y935561I-500J0D01*
G01*
X717628D02*
G03*
X717628Y935561I-500J0D01*
G01*
X738329D02*
G03*
X738329Y935561I-500J0D01*
G01*
X655527D02*
G03*
X655527Y935561I-500J0D01*
G01*
M02*
