G04*
G04 #@! TF.GenerationSoftware,Altium Limited,Altium Designer,23.10.1 (27)*
G04*
G04 Layer_Physical_Order=1*
G04 Layer_Color=255*
%FSLAX44Y44*%
%MOMM*%
G71*
G04*
G04 #@! TF.SameCoordinates,AB5FA82C-F65C-42C8-8390-C989D648E836*
G04*
G04*
G04 #@! TF.FilePolarity,Positive*
G04*
G01*
G75*
%ADD15C,0.2540*%
%ADD16C,0.5000*%
%ADD17R,1.6800X0.8000*%
%ADD18R,1.3000X1.2900*%
%ADD19R,1.5000X1.7000*%
%ADD20R,1.5000X1.6000*%
%ADD21R,1.4000X1.2900*%
%ADD22R,1.7000X1.5000*%
%ADD23R,0.6000X0.9000*%
%ADD24R,0.8000X0.9500*%
%ADD25R,0.9000X0.6000*%
%ADD26R,5.6000X5.6000*%
%ADD27R,0.8500X0.2500*%
%ADD28R,0.2500X0.8500*%
%ADD29R,2.1500X1.0000*%
%ADD30R,2.1500X3.2500*%
%ADD31R,0.9500X0.8000*%
%ADD32R,0.9000X0.7500*%
%ADD33R,0.7500X0.9000*%
%ADD34R,1.4000X1.2000*%
%ADD35R,2.1800X1.6000*%
%ADD36R,0.9779X0.5588*%
%ADD37R,1.3500X0.4000*%
%ADD38R,2.2000X1.6000*%
%ADD39R,1.9000X1.5000*%
%ADD40R,1.5500X1.5500*%
%ADD41C,1.5500*%
%ADD42C,1.4500*%
%ADD43C,0.6000*%
%ADD44C,0.5000*%
%ADD45C,1.2700*%
%ADD46C,0.1500*%
G36*
X828040Y1049820D02*
X807470D01*
Y1030820D01*
X828040D01*
Y914820D01*
X807470D01*
Y895820D01*
X828040D01*
Y889000D01*
X295910D01*
Y1084580D01*
X828040D01*
Y1049820D01*
D02*
G37*
%LPC*%
G36*
X683760Y1064660D02*
X682760D01*
X682490Y1064660D01*
X670760D01*
Y1061244D01*
X666677D01*
X665772Y1062149D01*
X663935Y1062910D01*
X661945D01*
X660108Y1062149D01*
X658701Y1060742D01*
X657940Y1058905D01*
Y1056915D01*
X658701Y1055078D01*
X660108Y1053671D01*
X661945Y1052910D01*
X663935D01*
X665772Y1053671D01*
X666677Y1054576D01*
X670760D01*
Y1051160D01*
X682490D01*
X682760Y1051160D01*
X683760D01*
X684030Y1051160D01*
X695760D01*
Y1054576D01*
X699970D01*
Y1051410D01*
X709970D01*
Y1064410D01*
X699970D01*
Y1061244D01*
X695760D01*
Y1064660D01*
X684030D01*
X683760Y1064660D01*
D02*
G37*
G36*
X745215Y1076880D02*
X743225D01*
X741388Y1076119D01*
X739981Y1074712D01*
X739220Y1072875D01*
Y1070885D01*
X739981Y1069048D01*
X740886Y1068143D01*
Y1064660D01*
X738070D01*
Y1061360D01*
X737876Y1061245D01*
X736800Y1060971D01*
X735622Y1062149D01*
X733785Y1062910D01*
X731795D01*
X730801Y1062498D01*
X724970D01*
Y1064410D01*
X714970D01*
Y1051410D01*
X724970D01*
Y1053322D01*
X730801D01*
X731795Y1052910D01*
X733785D01*
X735622Y1053671D01*
X736800Y1054849D01*
X737876Y1054575D01*
X738070Y1054460D01*
Y1051160D01*
X749800D01*
X750070Y1051160D01*
X751070D01*
X751340Y1051160D01*
X763070D01*
Y1054576D01*
X768550D01*
Y1052354D01*
X767620D01*
X766344Y1052100D01*
X765263Y1051377D01*
X763705Y1049820D01*
X750970D01*
Y1032920D01*
X768970D01*
Y1045655D01*
X769001Y1045686D01*
X798680D01*
X799956Y1045940D01*
X801038Y1046663D01*
X805535Y1051160D01*
X813570D01*
Y1064660D01*
X801570D01*
Y1056625D01*
X797299Y1052354D01*
X793550D01*
Y1064410D01*
X792888D01*
Y1066109D01*
X793421Y1067395D01*
Y1069384D01*
X792660Y1071222D01*
X791253Y1072628D01*
X789416Y1073390D01*
X787426D01*
X785589Y1072628D01*
X784182Y1071222D01*
X783421Y1069384D01*
Y1067395D01*
X783712Y1066693D01*
Y1064410D01*
X783550D01*
Y1052354D01*
X778550D01*
Y1064410D01*
X768550D01*
Y1061244D01*
X763070D01*
Y1064660D01*
X751340D01*
X751070Y1064660D01*
X750070D01*
X749800Y1064660D01*
X747554D01*
Y1068143D01*
X748459Y1069048D01*
X749220Y1070885D01*
Y1072875D01*
X748459Y1074712D01*
X747052Y1076119D01*
X745215Y1076880D01*
D02*
G37*
G36*
X419100Y1076459D02*
X372110D01*
X371330Y1076304D01*
X370668Y1075862D01*
X370226Y1075200D01*
X370071Y1074420D01*
Y1060560D01*
X369370Y1059580D01*
X369153D01*
X367883Y1060431D01*
Y1064992D01*
X368220Y1065805D01*
Y1067795D01*
X367459Y1069632D01*
X366052Y1071039D01*
X364215Y1071800D01*
X362225D01*
X360388Y1071039D01*
X358981Y1069632D01*
X358220Y1067795D01*
Y1065805D01*
X358707Y1064630D01*
Y1060478D01*
X358043Y1059814D01*
X357437Y1059580D01*
X356370D01*
X356100Y1059580D01*
X344370D01*
Y1056164D01*
X340410D01*
Y1059330D01*
X330410D01*
Y1046330D01*
X340410D01*
Y1049496D01*
X344370D01*
Y1046080D01*
X356100D01*
X356370Y1046080D01*
X357370D01*
X357640Y1046080D01*
X368801D01*
X369370Y1046080D01*
X370071Y1045100D01*
Y1043940D01*
X370226Y1043160D01*
X370668Y1042498D01*
X371330Y1042056D01*
X372110Y1041901D01*
X379484D01*
X379869Y1040631D01*
X379486Y1040374D01*
X379026Y1039914D01*
X378031Y1038426D01*
X377682Y1036670D01*
X378031Y1034914D01*
X379026Y1033426D01*
X380514Y1032431D01*
X382270Y1032082D01*
X384026Y1032431D01*
X384192Y1032542D01*
X406650D01*
X408406Y1032891D01*
X408572Y1033002D01*
X464110D01*
X465866Y1033351D01*
X467354Y1034346D01*
X468349Y1035834D01*
X468698Y1037590D01*
X468349Y1039346D01*
X467354Y1040834D01*
X465866Y1041829D01*
X464110Y1042178D01*
X421305D01*
X421115Y1042420D01*
X420742Y1043448D01*
X420984Y1043810D01*
X421139Y1044590D01*
Y1074420D01*
X420984Y1075200D01*
X420542Y1075862D01*
X419880Y1076304D01*
X419100Y1076459D01*
D02*
G37*
G36*
X638960Y1074740D02*
X625960D01*
Y1072324D01*
X624120D01*
X622844Y1072070D01*
X621762Y1071348D01*
X612905Y1062490D01*
X604120D01*
Y1057434D01*
X596160D01*
Y1064100D01*
X570160D01*
Y1044100D01*
X587216D01*
Y1042597D01*
X586311Y1041692D01*
X585550Y1039855D01*
Y1037865D01*
X586311Y1036028D01*
X587718Y1034621D01*
X589555Y1033860D01*
X591545D01*
X593382Y1034621D01*
X594789Y1036028D01*
X595550Y1037865D01*
Y1039855D01*
X594789Y1041692D01*
X593884Y1042597D01*
Y1043467D01*
X595154Y1044100D01*
X596160Y1044100D01*
X596173Y1044100D01*
X596212Y1044095D01*
X597401Y1042900D01*
Y1029970D01*
X597556Y1029190D01*
X597998Y1028528D01*
X598660Y1028086D01*
X599440Y1027931D01*
X625960D01*
Y1021665D01*
X613309Y1009014D01*
X612083D01*
X611480Y1008894D01*
X605822D01*
X605484Y1009232D01*
X604403Y1009955D01*
X603127Y1010209D01*
X598030D01*
Y1012226D01*
X602980D01*
X604256Y1012480D01*
X605337Y1013203D01*
X611658Y1019523D01*
X612146Y1019620D01*
X613228Y1020342D01*
X613950Y1021424D01*
X614204Y1022700D01*
X613950Y1023976D01*
X613228Y1025058D01*
X612146Y1025780D01*
X610870Y1026034D01*
X610120D01*
X608844Y1025780D01*
X607762Y1025058D01*
X601599Y1018894D01*
X591530D01*
X590254Y1018640D01*
X589550Y1018170D01*
X588357Y1018662D01*
X588280Y1018732D01*
Y1028560D01*
X552084D01*
Y1031898D01*
X551870Y1032971D01*
X551263Y1033880D01*
X541900Y1043243D01*
X540991Y1043850D01*
X539918Y1044064D01*
X539651D01*
X538102Y1045613D01*
X537193Y1046220D01*
X536120Y1046434D01*
X504160D01*
Y1049512D01*
X511091D01*
X512085Y1049100D01*
X514075D01*
X515912Y1049861D01*
X517319Y1051268D01*
X518080Y1053105D01*
Y1055095D01*
X517319Y1056932D01*
X515912Y1058339D01*
X514075Y1059100D01*
X512085D01*
X511091Y1058688D01*
X504160D01*
Y1064100D01*
X478360D01*
Y1044100D01*
X488386D01*
X488872Y1042927D01*
X479657Y1033712D01*
X479050Y1032803D01*
X478836Y1031730D01*
Y1002658D01*
X461172Y984994D01*
X459186D01*
X458992Y985969D01*
X458385Y986879D01*
X456152Y989111D01*
Y994734D01*
X442373D01*
Y991637D01*
X441200Y991151D01*
X419683Y1012668D01*
X419349Y1014346D01*
X419110Y1014703D01*
Y1021590D01*
X393610D01*
Y1019073D01*
X388770D01*
Y1020130D01*
X375770D01*
Y1018968D01*
X374361D01*
X366601Y1026728D01*
X366189Y1027722D01*
X364782Y1029129D01*
X362945Y1029890D01*
X360955D01*
X359118Y1029129D01*
X357711Y1027722D01*
X356950Y1025885D01*
Y1023895D01*
X357711Y1022058D01*
X359118Y1020651D01*
X360112Y1020239D01*
X364876Y1015475D01*
X360854Y1011452D01*
X359555Y1011694D01*
X359413Y1011808D01*
X358252Y1013820D01*
X356530Y1015542D01*
X354420Y1016760D01*
X352068Y1017390D01*
X349632D01*
X347280Y1016760D01*
X345170Y1015542D01*
X343448Y1013820D01*
X342230Y1011710D01*
X341600Y1009358D01*
Y1006922D01*
X342230Y1004570D01*
X343448Y1002460D01*
X344498Y1001410D01*
X343973Y1000140D01*
X342100D01*
Y992140D01*
Y985640D01*
Y979140D01*
Y972640D01*
Y966140D01*
X343973D01*
X344498Y964870D01*
X343448Y963820D01*
X342230Y961710D01*
X341600Y959358D01*
Y956922D01*
X342230Y954570D01*
X343448Y952460D01*
X345170Y950738D01*
X347280Y949520D01*
X349632Y948890D01*
X352068D01*
X354420Y949520D01*
X356530Y950738D01*
X358252Y952460D01*
X359470Y954570D01*
X360100Y956922D01*
Y959358D01*
X359470Y961710D01*
X358252Y963820D01*
X357720Y964352D01*
X358246Y965622D01*
X361400D01*
X362225Y965280D01*
X364215D01*
X366052Y966041D01*
X367459Y967448D01*
X368220Y969285D01*
Y971275D01*
X367459Y973112D01*
X366052Y974519D01*
X364215Y975280D01*
X362225D01*
X361062Y974798D01*
X359600D01*
Y980786D01*
X375948D01*
X380921Y975813D01*
X382003Y975090D01*
X383279Y974836D01*
X411429D01*
X411571Y974694D01*
X411940Y974141D01*
X413736Y972345D01*
X413753Y972334D01*
X415068Y971019D01*
Y966146D01*
X428847D01*
Y975852D01*
X431081D01*
X432075Y975440D01*
X434065D01*
X435902Y976201D01*
X437309Y977608D01*
X438070Y979445D01*
Y979644D01*
X439243Y980130D01*
X439472Y979902D01*
X440960Y978907D01*
X442373Y978626D01*
Y966146D01*
X456152D01*
Y971769D01*
X458385Y974001D01*
X458992Y974911D01*
X459186Y975886D01*
X463783D01*
X464856Y976100D01*
X465766Y976707D01*
X487123Y998064D01*
X487730Y998974D01*
X487944Y1000047D01*
Y1029119D01*
X496151Y1037326D01*
X532466D01*
X533509Y1036056D01*
X533507Y1036047D01*
X533270Y1035769D01*
X531894Y1034392D01*
X531742Y1034026D01*
X530497Y1033779D01*
X529408Y1034867D01*
X528326Y1035590D01*
X527050Y1035844D01*
X514180D01*
X512904Y1035590D01*
X511823Y1034867D01*
X508579Y1031624D01*
X502860D01*
X501584Y1031370D01*
X500503Y1030648D01*
X499292Y1029437D01*
X498570Y1028356D01*
X498316Y1027080D01*
X498570Y1025804D01*
X499292Y1024723D01*
X500374Y1024000D01*
X501650Y1023746D01*
X502926Y1024000D01*
X504007Y1024723D01*
X504241Y1024956D01*
X509960D01*
X511236Y1025210D01*
X512318Y1025932D01*
X515561Y1029176D01*
X525669D01*
X526696Y1028149D01*
Y1022060D01*
X526950Y1020784D01*
X527420Y1020080D01*
X526928Y1018887D01*
X526858Y1018810D01*
X523953D01*
X523530Y1018894D01*
X516450D01*
X515174Y1018640D01*
X514092Y1017917D01*
X509420Y1013245D01*
X508150Y1013771D01*
Y1020830D01*
X495150D01*
Y1009330D01*
X497062D01*
Y1005289D01*
X496650Y1004295D01*
Y1002305D01*
X497411Y1000468D01*
X497906Y999973D01*
X497784Y999128D01*
X497551Y998531D01*
X496632Y997917D01*
X475243Y976527D01*
X474520Y975446D01*
X474266Y974170D01*
Y972411D01*
X460505Y958650D01*
X447910D01*
Y946920D01*
X447910Y946650D01*
X447910D01*
Y945650D01*
X447910D01*
Y933650D01*
X451326D01*
Y928290D01*
X448160D01*
Y918290D01*
X461160D01*
Y928290D01*
X457994D01*
Y933650D01*
X461410D01*
Y945650D01*
X461410Y945650D01*
Y946650D01*
X461410D01*
X461410Y946920D01*
Y950125D01*
X475947Y964662D01*
X477120Y964176D01*
Y954270D01*
X490620D01*
Y966270D01*
X488727D01*
X488109Y967448D01*
X488870Y969285D01*
Y970565D01*
X498316Y980011D01*
X499586Y979485D01*
Y974017D01*
X498681Y973112D01*
X497920Y971275D01*
Y969285D01*
X498681Y967448D01*
X498063Y966270D01*
X496170D01*
Y954270D01*
X509670D01*
Y966270D01*
X507777D01*
X507159Y967448D01*
X507920Y969285D01*
Y971275D01*
X507159Y973112D01*
X506573Y973698D01*
X506669Y974181D01*
X508044Y974595D01*
X508978Y973661D01*
X510815Y972900D01*
X512805D01*
X514642Y973661D01*
X515760Y974779D01*
X517030Y974370D01*
Y962310D01*
X523107D01*
X523530Y962226D01*
X527530D01*
Y958060D01*
X527845D01*
X528230Y956790D01*
X527673Y956417D01*
X526950Y955336D01*
X526696Y954060D01*
Y943641D01*
X514533Y931478D01*
X514449Y931353D01*
X513179Y931738D01*
Y933379D01*
X513252Y933428D01*
X513694Y934090D01*
X513849Y934870D01*
Y937260D01*
X513694Y938040D01*
X513252Y938702D01*
X512590Y939144D01*
X511810Y939299D01*
X494030D01*
X493250Y939144D01*
X492588Y938702D01*
X492146Y938040D01*
X491991Y937260D01*
Y920249D01*
X490620D01*
Y930710D01*
X487204D01*
Y932253D01*
X488109Y933158D01*
X488870Y934995D01*
Y936985D01*
X488109Y938822D01*
X486702Y940229D01*
X484865Y940990D01*
X482875D01*
X481038Y940229D01*
X479631Y938822D01*
X478870Y936985D01*
Y934995D01*
X479631Y933158D01*
X480536Y932253D01*
Y930710D01*
X477120D01*
Y920249D01*
X469900D01*
X469120Y920094D01*
X468458Y919652D01*
X468016Y918990D01*
X467861Y918210D01*
Y913899D01*
X419100D01*
X418320Y913744D01*
X417658Y913302D01*
X417216Y912640D01*
X417061Y911860D01*
Y895350D01*
X417216Y894570D01*
X417658Y893908D01*
X418320Y893466D01*
X419100Y893311D01*
X511810D01*
X512590Y893466D01*
X513252Y893908D01*
X513694Y894570D01*
X513849Y895350D01*
Y900280D01*
X522290D01*
Y903446D01*
X530340D01*
Y903370D01*
X548340D01*
Y914655D01*
X551167Y917482D01*
X552340Y916996D01*
Y903370D01*
X554503D01*
X555350Y902100D01*
X555070Y901425D01*
Y899435D01*
X555831Y897598D01*
X557238Y896191D01*
X559075Y895430D01*
X561065D01*
X562902Y896191D01*
X564309Y897598D01*
X565070Y899435D01*
Y901425D01*
X564850Y901957D01*
Y903370D01*
X570340D01*
Y913996D01*
X571513Y914482D01*
X577072Y908923D01*
X577530Y908617D01*
Y901550D01*
X588260D01*
X589030Y901550D01*
X590300Y901550D01*
X601030D01*
Y914550D01*
X599868D01*
Y923140D01*
X601030D01*
Y925052D01*
X602531D01*
X603525Y924640D01*
X605515D01*
X607352Y925401D01*
X608759Y926808D01*
X609520Y928645D01*
Y930635D01*
X608759Y932472D01*
X607352Y933879D01*
X605515Y934640D01*
X603525D01*
X602531Y934228D01*
X601030D01*
Y936140D01*
X589530D01*
Y923140D01*
X590692D01*
Y915448D01*
X589794Y914550D01*
X588260Y914550D01*
X581122D01*
X580814Y914611D01*
X570340Y925085D01*
Y936370D01*
X564674D01*
Y938180D01*
X564652Y938290D01*
X564875Y939560D01*
X565541Y939836D01*
X566712Y940321D01*
X566824Y940433D01*
X568571Y940384D01*
X580103Y928852D01*
X580200Y928364D01*
X580923Y927282D01*
X582004Y926560D01*
X583280Y926306D01*
X584556Y926560D01*
X585638Y927282D01*
X586360Y928364D01*
X586614Y929640D01*
Y930390D01*
X586360Y931666D01*
X585638Y932748D01*
X573484Y944901D01*
Y947477D01*
X573552Y947560D01*
X581756D01*
X581950Y946584D01*
X582672Y945503D01*
X587224Y940951D01*
X588306Y940228D01*
X589581Y939975D01*
X607250D01*
X611346Y935879D01*
Y921820D01*
X607930D01*
Y910090D01*
X607930Y909820D01*
Y908820D01*
X607930Y908550D01*
Y896820D01*
X621430D01*
Y899486D01*
X628600D01*
Y896470D01*
X638600D01*
Y909470D01*
X628600D01*
Y906154D01*
X621430D01*
Y908550D01*
X621430Y908820D01*
Y909820D01*
X621430Y910090D01*
Y921820D01*
X618014D01*
Y937260D01*
X617760Y938536D01*
X617038Y939618D01*
X610989Y945666D01*
X609907Y946389D01*
X608631Y946643D01*
X590962D01*
X588364Y949241D01*
Y954310D01*
X588280Y954732D01*
Y957310D01*
X591107D01*
X591530Y957226D01*
X626758D01*
X663991Y919993D01*
X663505Y918820D01*
X659970D01*
Y897820D01*
X678970D01*
Y916256D01*
X777350D01*
X778626Y916510D01*
X779707Y917233D01*
X785845Y923370D01*
X787125D01*
X788962Y924131D01*
X790369Y925538D01*
X791130Y927375D01*
Y929365D01*
X790369Y931202D01*
X788962Y932609D01*
X787125Y933370D01*
X785135D01*
X783298Y932609D01*
X781891Y931202D01*
X781130Y929365D01*
Y928085D01*
X775969Y922924D01*
X670490D01*
X643102Y950313D01*
X643588Y951486D01*
X645453D01*
X646138Y950801D01*
X647975Y950040D01*
X649965D01*
X651802Y950801D01*
X652487Y951486D01*
X659970D01*
Y937820D01*
X680770D01*
Y948820D01*
Y962486D01*
X696643D01*
X698305Y960824D01*
Y960475D01*
X699066Y958638D01*
X700472Y957231D01*
X702310Y956470D01*
X704299D01*
X706137Y957231D01*
X707543Y958638D01*
X708305Y960475D01*
Y962465D01*
X707543Y964302D01*
X706137Y965709D01*
X704299Y966470D01*
X702310D01*
X702154Y966405D01*
X700381Y968177D01*
X699300Y968900D01*
X698024Y969154D01*
X680770D01*
Y971820D01*
X673320D01*
X672935Y973090D01*
X673519Y973481D01*
X673614Y973576D01*
X674609Y975064D01*
X674958Y976820D01*
X674609Y978576D01*
X673614Y980064D01*
X672887Y980550D01*
X673273Y981820D01*
X680770D01*
Y984486D01*
X682901D01*
X693115Y974272D01*
X694196Y973550D01*
X695472Y973296D01*
X724364D01*
X725269Y972391D01*
X727107Y971630D01*
X729096D01*
X730934Y972391D01*
X731838Y973296D01*
X756993D01*
X757898Y972391D01*
X759735Y971630D01*
X761725D01*
X763562Y972391D01*
X764969Y973798D01*
X765730Y975635D01*
Y977625D01*
X764969Y979462D01*
X763562Y980869D01*
X761725Y981630D01*
X759735D01*
X757898Y980869D01*
X756993Y979964D01*
X731838D01*
X730934Y980869D01*
X730523Y981039D01*
X730275Y982284D01*
X730679Y982688D01*
X731440Y984525D01*
Y985805D01*
X750261Y1004626D01*
X750984Y1005708D01*
X751238Y1006984D01*
Y1010867D01*
X752269Y1011898D01*
X753030Y1013735D01*
Y1015725D01*
X752269Y1017562D01*
X750862Y1018969D01*
X749025Y1019730D01*
X747035D01*
X745198Y1018969D01*
X743791Y1017562D01*
X743030Y1015725D01*
Y1013735D01*
X743791Y1011898D01*
X744570Y1011119D01*
Y1008365D01*
X726725Y990520D01*
X725445D01*
X723608Y989759D01*
X722201Y988352D01*
X721440Y986515D01*
Y984525D01*
X722201Y982688D01*
X723608Y981281D01*
X723721Y981234D01*
X723469Y979964D01*
X696853D01*
X686640Y990178D01*
X685558Y990900D01*
X684282Y991154D01*
X680770D01*
Y1006316D01*
X692223D01*
X693128Y1005411D01*
X694965Y1004650D01*
X696955D01*
X698792Y1005411D01*
X700199Y1006818D01*
X700960Y1008655D01*
Y1010645D01*
X700199Y1012482D01*
X698792Y1013889D01*
X696955Y1014650D01*
X694965D01*
X693128Y1013889D01*
X692223Y1012984D01*
X680770D01*
Y1026820D01*
X678970D01*
Y1032920D01*
X694470D01*
Y1049820D01*
X677470D01*
Y1049024D01*
X659610D01*
X658334Y1048770D01*
X657253Y1048047D01*
X643389Y1034184D01*
X642119Y1034710D01*
Y1062990D01*
X641964Y1063770D01*
X641522Y1064432D01*
X640860Y1064874D01*
X640080Y1065029D01*
X638960D01*
Y1074740D01*
D02*
G37*
G36*
X325410Y1059330D02*
X315410D01*
Y1057418D01*
X305519D01*
X304525Y1057830D01*
X302535D01*
X300698Y1057069D01*
X299291Y1055662D01*
X298530Y1053825D01*
Y1051835D01*
X299291Y1049998D01*
X300698Y1048591D01*
X302535Y1047830D01*
X304525D01*
X305519Y1048242D01*
X315410D01*
Y1046330D01*
X325410D01*
Y1059330D01*
D02*
G37*
G36*
X328350Y1026200D02*
X328189Y1026179D01*
X319513Y1026179D01*
X319350Y1026200D01*
X317523Y1025960D01*
X315820Y1025255D01*
X314357Y1024132D01*
X313235Y1022670D01*
X312530Y1020967D01*
X312290Y1019140D01*
X312311Y1018979D01*
Y1006140D01*
X312466Y1005360D01*
X312908Y1004698D01*
X313570Y1004256D01*
X314350Y1004101D01*
X333350D01*
X334130Y1004256D01*
X334792Y1004698D01*
X335234Y1005360D01*
X335389Y1006140D01*
Y1018979D01*
X335410Y1019140D01*
X335170Y1020967D01*
X334464Y1022670D01*
X333342Y1024132D01*
X331880Y1025255D01*
X330177Y1025960D01*
X328350Y1026200D01*
D02*
G37*
G36*
X335350Y1002640D02*
X312350D01*
Y983910D01*
X312350Y983640D01*
Y982640D01*
X312350Y982370D01*
Y963640D01*
X335350D01*
Y982370D01*
X335350Y982640D01*
Y983640D01*
X335350Y983910D01*
Y1002640D01*
D02*
G37*
G36*
X333350Y962179D02*
X314350D01*
X313570Y962024D01*
X312908Y961582D01*
X312466Y960920D01*
X312311Y960140D01*
Y947301D01*
X312290Y947140D01*
X312530Y945313D01*
X313235Y943610D01*
X314358Y942148D01*
X315820Y941025D01*
X317523Y940320D01*
X319350Y940080D01*
X319511Y940101D01*
X328187Y940101D01*
X328350Y940080D01*
X330177Y940320D01*
X331880Y941025D01*
X333343Y942148D01*
X334464Y943610D01*
X335170Y945313D01*
X335410Y947140D01*
X335389Y947301D01*
Y960140D01*
X335234Y960920D01*
X334792Y961582D01*
X334130Y962024D01*
X333350Y962179D01*
D02*
G37*
G36*
X433470Y945650D02*
X419970D01*
Y933650D01*
X423386D01*
Y928410D01*
X420220D01*
Y918410D01*
X426247D01*
X426720Y918316D01*
X427193Y918410D01*
X433220D01*
Y928410D01*
X430054D01*
Y933650D01*
X433470D01*
Y945650D01*
D02*
G37*
G36*
X391174Y917800D02*
X388606D01*
X386127Y917135D01*
X383903Y915852D01*
X382088Y914037D01*
X380804Y911813D01*
X380140Y909334D01*
Y906766D01*
X380804Y904287D01*
X382088Y902063D01*
X383903Y900248D01*
X386127Y898964D01*
X388606Y898300D01*
X391174D01*
X393653Y898964D01*
X395877Y900248D01*
X397692Y902063D01*
X398975Y904287D01*
X399640Y906766D01*
Y909334D01*
X398975Y911813D01*
X397692Y914037D01*
X395877Y915852D01*
X393653Y917135D01*
X391174Y917800D01*
D02*
G37*
G36*
X365774D02*
X363206D01*
X360727Y917135D01*
X358503Y915852D01*
X356688Y914037D01*
X355405Y911813D01*
X354740Y909334D01*
Y906766D01*
X355405Y904287D01*
X356688Y902063D01*
X358503Y900248D01*
X360727Y898964D01*
X363206Y898300D01*
X365774D01*
X368253Y898964D01*
X370477Y900248D01*
X372292Y902063D01*
X373576Y904287D01*
X374240Y906766D01*
Y909334D01*
X373576Y911813D01*
X372292Y914037D01*
X370477Y915852D01*
X368253Y917135D01*
X365774Y917800D01*
D02*
G37*
G36*
X340374D02*
X337806D01*
X335327Y917135D01*
X333103Y915852D01*
X331288Y914037D01*
X330005Y911813D01*
X329340Y909334D01*
Y906766D01*
X330005Y904287D01*
X331288Y902063D01*
X333103Y900248D01*
X335327Y898964D01*
X337806Y898300D01*
X340374D01*
X342853Y898964D01*
X345077Y900248D01*
X346892Y902063D01*
X348176Y904287D01*
X348840Y906766D01*
Y909334D01*
X348176Y911813D01*
X346892Y914037D01*
X345077Y915852D01*
X342853Y917135D01*
X340374Y917800D01*
D02*
G37*
G36*
X649595Y921299D02*
X647605D01*
X645768Y920538D01*
X644361Y919132D01*
X643600Y917294D01*
Y915305D01*
X644012Y914311D01*
Y909470D01*
X643600D01*
Y896470D01*
X653600D01*
Y909470D01*
X653188D01*
Y914311D01*
X653600Y915305D01*
Y917294D01*
X652839Y919132D01*
X651432Y920538D01*
X649595Y921299D01*
D02*
G37*
%LPD*%
G36*
X419100Y1044590D02*
X393610D01*
Y1043940D01*
X372110D01*
Y1056640D01*
Y1074420D01*
X419100D01*
Y1044590D01*
D02*
G37*
G36*
X640080Y1029970D02*
X599440D01*
Y1043940D01*
X617220Y1049020D01*
X624840Y1062990D01*
X640080D01*
Y1029970D01*
D02*
G37*
G36*
X659970Y1039676D02*
Y1024920D01*
Y1013154D01*
X647245D01*
X646047Y1012916D01*
X645969Y1012971D01*
X645514Y1014179D01*
X647518Y1016182D01*
X648240Y1017264D01*
X648494Y1018540D01*
Y1029859D01*
X658797Y1040162D01*
X659970Y1039676D01*
D02*
G37*
G36*
X375770Y1008894D02*
X375770Y1007360D01*
Y996630D01*
X388770D01*
Y997792D01*
X395947D01*
X395948Y997791D01*
X397785Y997030D01*
X399775D01*
X401612Y997791D01*
X403019Y999198D01*
X403780Y1001035D01*
Y1003025D01*
X403019Y1004862D01*
X401612Y1006269D01*
X401489Y1006320D01*
X401741Y1007590D01*
X411811D01*
X411866Y1007508D01*
X423466Y995907D01*
X422980Y994734D01*
X415068D01*
Y989861D01*
X413753Y988546D01*
X413736Y988535D01*
X411940Y986739D01*
X411571Y986186D01*
X411429Y986044D01*
X386540D01*
X381567Y991018D01*
X380485Y991740D01*
X379210Y991994D01*
X359600D01*
Y993784D01*
X366363Y1000547D01*
X367357Y1002036D01*
X367707Y1003792D01*
Y1005328D01*
X372170Y1009792D01*
X374872D01*
X375770Y1008894D01*
D02*
G37*
G36*
X659970Y983588D02*
X659970Y981820D01*
X658910Y981313D01*
X651605D01*
X649849Y980964D01*
X648361Y979969D01*
X648266Y979874D01*
X647271Y978386D01*
X646922Y976630D01*
X647271Y974874D01*
X648266Y973386D01*
X649754Y972391D01*
X651510Y972042D01*
X651988Y972137D01*
X658831D01*
X659970Y971820D01*
X659970Y970867D01*
Y969154D01*
X649460D01*
X649399Y969302D01*
X647992Y970709D01*
X646155Y971470D01*
X644165D01*
X642328Y970709D01*
X640921Y969302D01*
X640160Y967465D01*
Y965475D01*
X640921Y963638D01*
X642328Y962231D01*
X644165Y961470D01*
X646155D01*
X647992Y962231D01*
X648247Y962486D01*
X659970D01*
Y958154D01*
X652927D01*
X651802Y959279D01*
X649965Y960040D01*
X647975D01*
X646138Y959279D01*
X645013Y958154D01*
X641681D01*
X631917Y967917D01*
X630836Y968640D01*
X629560Y968894D01*
X626194D01*
X625708Y970067D01*
X640126Y984486D01*
X659072D01*
X659970Y983588D01*
D02*
G37*
G36*
X520538Y926163D02*
X520802Y926053D01*
X521541Y924268D01*
X522948Y922861D01*
X524785Y922100D01*
X526775D01*
X528231Y922703D01*
X530340D01*
Y920370D01*
X530340Y920370D01*
Y919370D01*
X530340D01*
X530340Y919100D01*
Y910114D01*
X522290D01*
Y913280D01*
X513849D01*
Y921870D01*
X513694Y922650D01*
X513252Y923312D01*
X513179Y923361D01*
Y925752D01*
X514449Y926137D01*
X514533Y926012D01*
X515614Y925290D01*
X516890Y925036D01*
X518166Y925290D01*
X519248Y926012D01*
X519510Y926405D01*
X520538Y926163D01*
D02*
G37*
G36*
X511810Y934870D02*
X511140D01*
Y921870D01*
X511810D01*
Y913280D01*
X510790D01*
Y900280D01*
X511810D01*
Y895350D01*
X419100D01*
Y911860D01*
X469900D01*
Y918210D01*
X494030D01*
Y937260D01*
X511810D01*
Y934870D01*
D02*
G37*
G36*
X328350Y1019140D02*
X319350D01*
Y1024140D01*
X328350Y1024140D01*
Y1019140D01*
D02*
G37*
G36*
X333350Y1006140D02*
X314350D01*
Y1019140D01*
X333350D01*
Y1006140D01*
D02*
G37*
G36*
Y947140D02*
X314350D01*
Y960140D01*
X333350D01*
Y947140D01*
D02*
G37*
G36*
X328350Y942140D02*
X319350Y942140D01*
Y947140D01*
X328350D01*
Y942140D01*
D02*
G37*
D15*
X591530Y985560D02*
X602388D01*
X609155Y998748D02*
X614018D01*
X605887Y980560D02*
X611310Y985983D01*
X611677D01*
X600967Y990560D02*
X609155Y998748D01*
X594760Y995580D02*
X596217D01*
X609968Y993140D02*
X619760D01*
X600127Y999490D02*
X601030D01*
X596217Y995580D02*
X600127Y999490D01*
X594760Y990560D02*
X600967D01*
X602388Y985560D02*
X609968Y993140D01*
X614018Y998748D02*
X614680Y999410D01*
X536133Y1031560D02*
X540010Y1027683D01*
Y1026062D02*
X540010Y1026062D01*
Y1025290D02*
Y1026062D01*
X540010Y1026062D02*
Y1027683D01*
X560050Y949326D02*
X563880Y945496D01*
Y944560D02*
Y945496D01*
X560050Y949326D02*
Y954040D01*
X640300Y954820D02*
X670370D01*
X585030Y947860D02*
Y954310D01*
Y947860D02*
X589581Y943309D01*
X689760Y1057910D02*
X704970D01*
X580030Y1010560D02*
X591530D01*
X579530Y1010060D02*
X580030Y1010560D01*
X535030D02*
Y1022060D01*
Y1010560D02*
X535530Y1010060D01*
X523530Y965560D02*
X535030D01*
X535530Y966060D01*
X565030Y954060D02*
Y962560D01*
X568530Y966060D01*
X610120Y1022700D02*
X610870D01*
X514180Y1032510D02*
X527050D01*
X530030Y1029530D01*
X509960Y1028290D02*
X514180Y1032510D01*
X602980Y1015560D02*
X610120Y1022700D01*
X591530Y1015560D02*
X602980D01*
X502860Y1028290D02*
X509960D01*
X501650Y1027080D02*
X502860Y1028290D01*
X530030Y1022060D02*
Y1029530D01*
X570030Y947597D02*
Y954060D01*
X530030Y942260D02*
Y954060D01*
X570150Y943520D02*
X583280Y930390D01*
X570150Y943520D02*
Y947477D01*
X583280Y929640D02*
Y930390D01*
X570030Y947597D02*
X570150Y947477D01*
X516890Y929120D02*
X530030Y942260D01*
X516890Y928370D02*
Y929120D01*
X523510Y980540D02*
X523530Y980560D01*
X511810Y977900D02*
X512746D01*
X515406Y980560D02*
X523530D01*
X512746Y977900D02*
X515406Y980560D01*
X483870Y924710D02*
Y935990D01*
X669770Y998220D02*
X670370Y998820D01*
X502920Y970280D02*
Y980440D01*
X502770Y960120D02*
X502920Y960270D01*
X523510Y985540D02*
X523530Y985560D01*
X502920Y980440D02*
X508020Y985540D01*
X523510D01*
X502920Y960270D02*
Y970280D01*
X483870D02*
X504150Y990560D01*
X483720Y960120D02*
X483870Y960270D01*
Y970280D01*
X504150Y990560D02*
X523530D01*
X498990Y995560D02*
X523530D01*
X477600Y974170D02*
X498990Y995560D01*
X455410Y948840D02*
X477600Y971030D01*
Y974170D01*
X454660Y948840D02*
X455410D01*
X510540Y1004570D02*
X511202Y1005232D01*
Y1010312D02*
X516450Y1015560D01*
X511202Y1005232D02*
Y1010312D01*
X516450Y1015560D02*
X523530D01*
X631710Y1022700D02*
X632460D01*
X612083Y1005680D02*
X614690D01*
X631710Y1022700D01*
X591550Y1005580D02*
X596638D01*
X611963Y1005560D02*
X612083Y1005680D01*
X604441Y1005560D02*
X611963D01*
X603127Y1006874D02*
X604441Y1005560D01*
X597933Y1006874D02*
X603127D01*
X591530Y1005560D02*
X591550Y1005580D01*
X596638D02*
X597933Y1006874D01*
X662940Y1057910D02*
X676760D01*
X744070D02*
X744220Y1058060D01*
Y1071880D01*
X645160Y1031240D02*
X659610Y1045690D01*
X645160Y1018540D02*
Y1031240D01*
X659610Y1045690D02*
X681650D01*
X685970Y1041370D01*
X619760Y993140D02*
X645160Y1018540D01*
X702374Y961470D02*
X703305D01*
X698024Y965820D02*
X702374Y961470D01*
X747904Y1014604D02*
X748030Y1014730D01*
X747904Y1006984D02*
Y1014604D01*
X726440Y985520D02*
X747904Y1006984D01*
X645160Y966470D02*
X645810Y965820D01*
X591530Y980560D02*
X605887D01*
X670370Y965820D02*
X698024D01*
X645810D02*
X670370D01*
X670540Y1009650D02*
X695960D01*
X647245Y1009820D02*
X670370D01*
X670540Y1009650D01*
X612985Y975560D02*
X647245Y1009820D01*
X591530Y975560D02*
X612985D01*
X728101Y976630D02*
X760730D01*
X674770Y987820D02*
X683353Y987820D01*
X684282D01*
X670370Y987820D02*
X674770D01*
X638745D02*
X670370D01*
X674770D01*
X695472Y976630D02*
X728101D01*
X684282Y987820D02*
X695472Y976630D01*
X621485Y970560D02*
X638745Y987820D01*
X591530Y970560D02*
X621485D01*
X629560Y965560D02*
X640300Y954820D01*
X591530Y965560D02*
X629560D01*
X591530Y960560D02*
X628139D01*
X669109Y919590D01*
X777350D01*
X786130Y928370D01*
X614680Y915820D02*
Y937260D01*
X608631Y943309D02*
X614680Y937260D01*
X589581Y943309D02*
X608631D01*
X585090Y1054100D02*
X590550Y1048640D01*
Y1038860D02*
Y1048640D01*
X624120Y1068990D02*
X632460D01*
X611620Y1056490D02*
X624120Y1068990D01*
X610870Y1056490D02*
X611620D01*
X585090Y1054100D02*
X608480D01*
X610870Y1056490D01*
X583160Y1054100D02*
X585090D01*
X555030Y945380D02*
Y954060D01*
X580800Y911280D02*
X583280Y908800D01*
X579430Y911280D02*
X580800D01*
X561340Y928370D02*
X562340D01*
X583280Y908050D02*
Y908800D01*
X562340Y928370D02*
X579430Y911280D01*
X555030Y945380D02*
X557610Y942800D01*
X561340Y928370D02*
Y938180D01*
X557610Y941910D02*
X561340Y938180D01*
X557610Y941910D02*
Y942800D01*
X550030Y921060D02*
Y954060D01*
X539340Y911370D02*
X540340D01*
X550030Y921060D01*
X534750Y906780D02*
X539340Y911370D01*
X516540Y906780D02*
X534750D01*
X798680Y1049020D02*
X804090Y1054430D01*
X765700Y1047100D02*
X767620Y1049020D01*
X798680D01*
X759970Y1041370D02*
X760520D01*
X765700Y1046550D02*
Y1047100D01*
X760520Y1041370D02*
X765700Y1046550D01*
X357568Y988910D02*
X357818Y988660D01*
X412810Y982710D02*
X414298Y984198D01*
X350850Y989640D02*
X351580Y988910D01*
X416094Y986177D02*
X416099D01*
X414298Y984198D02*
Y984381D01*
X385159Y982710D02*
X412810D01*
X357818Y988660D02*
X379210D01*
X416099Y986177D02*
X419862Y989940D01*
X350850Y983140D02*
X351580Y983870D01*
X419862Y989940D02*
X421958D01*
X351580Y983870D02*
X357568D01*
X379210Y988660D02*
X385159Y982710D01*
X416094Y974703D02*
X416099D01*
X419862Y970940D01*
X414298Y976499D02*
X416094Y974703D01*
X351580Y988910D02*
X357568D01*
X419862Y970940D02*
X421958D01*
X414298Y984381D02*
X416094Y986177D01*
X383279Y978170D02*
X412810D01*
X414298Y976682D01*
Y976499D02*
Y976682D01*
X377329Y984120D02*
X383279Y978170D01*
X357818Y984120D02*
X377329D01*
X357568Y983870D02*
X357818Y984120D01*
X454660Y921650D02*
Y935840D01*
X426720Y921650D02*
Y935840D01*
X334910Y1052830D02*
X350370D01*
X757070Y1057910D02*
X773800D01*
X807570Y1057160D02*
Y1057910D01*
X804840Y1054430D02*
X807570Y1057160D01*
X804090Y1054430D02*
X804840D01*
X633950Y902820D02*
X634100Y902970D01*
X614680Y902820D02*
X633950D01*
D16*
X321850Y1019140D02*
G03*
X321850Y1019140I-2500J0D01*
G01*
X330850D02*
G03*
X330850Y1019140I-2500J0D01*
G01*
X321850Y947140D02*
G03*
X321850Y947140I-2500J0D01*
G01*
X330850D02*
G03*
X330850Y947140I-2500J0D01*
G01*
X670275Y976725D02*
X670370Y976820D01*
X651605Y976725D02*
X670275D01*
X651510Y976630D02*
X651605Y976725D01*
X407110Y1037590D02*
X464110D01*
X406650Y1037130D02*
X407110Y1037590D01*
X382730Y1037130D02*
X406650D01*
X382270Y1036670D02*
X382730Y1037130D01*
X525971Y927291D02*
X538261D01*
X525780Y927100D02*
X525971Y927291D01*
X788300Y1057910D02*
Y1068269D01*
X788421Y1068390D01*
X720990Y1057910D02*
X732790D01*
X650240Y998220D02*
X669770D01*
X648600Y902970D02*
Y916299D01*
X595280Y929640D02*
X604520D01*
X595280Y908050D02*
Y929640D01*
X560261Y910291D02*
X561340Y911370D01*
X560261Y900621D02*
Y910291D01*
X560070Y900430D02*
X560261Y900621D01*
X491260Y1054100D02*
X513080D01*
X501650Y1003300D02*
Y1015080D01*
X303530Y1052830D02*
X320410D01*
X398509Y1002030D02*
X398780D01*
X398159Y1002380D02*
X398509Y1002030D01*
X421958Y980440D02*
X433070D01*
X382270Y1002380D02*
X398159D01*
X538261Y927291D02*
X539340Y928370D01*
X363150Y970210D02*
X363220Y970280D01*
X350850Y970140D02*
X350920Y970210D01*
X363150D01*
X382375Y1014485D02*
X413215D01*
X372460Y1014380D02*
X382270D01*
X370270D02*
X372460D01*
X363295Y1052905D02*
Y1066725D01*
X363220Y1066800D02*
X363295Y1066725D01*
Y1052905D02*
X363370Y1052830D01*
X361950Y1024890D02*
X372460Y1014380D01*
X350850Y996140D02*
X355467D01*
X363119Y1003792D01*
X413215Y1014485D02*
X415110Y1012590D01*
Y1010752D02*
Y1012590D01*
X442716Y983146D02*
X444461D01*
X415110Y1010752D02*
X442716Y983146D01*
X444461D02*
X447167Y980440D01*
X449263D01*
X363119Y1007228D02*
X370270Y1014380D01*
X363119Y1003792D02*
Y1007228D01*
X382270Y1014380D02*
X382375Y1014485D01*
D17*
X670370Y976820D02*
D03*
Y998820D02*
D03*
Y965820D02*
D03*
Y1009820D02*
D03*
Y987820D02*
D03*
Y954820D02*
D03*
Y943820D02*
D03*
Y1020820D02*
D03*
D18*
X685970Y1041370D02*
D03*
D19*
X669470Y908320D02*
D03*
D20*
Y1034920D02*
D03*
D21*
X759970Y1041370D02*
D03*
D22*
X817970Y1040320D02*
D03*
Y905320D02*
D03*
D23*
X633600Y902970D02*
D03*
X648600D02*
D03*
X773550Y1057910D02*
D03*
X788550D02*
D03*
X704970D02*
D03*
X719970D02*
D03*
X335410Y1052830D02*
D03*
X320410D02*
D03*
D24*
X757070Y1057910D02*
D03*
X744070D02*
D03*
X820570D02*
D03*
X676760D02*
D03*
X363370Y1052830D02*
D03*
X350370D02*
D03*
X689760Y1057910D02*
D03*
X807570D02*
D03*
D25*
X454660Y923290D02*
D03*
Y908290D02*
D03*
X426720Y923410D02*
D03*
Y908410D02*
D03*
D26*
X557530Y988060D02*
D03*
D27*
X523280Y960560D02*
D03*
Y965560D02*
D03*
Y970560D02*
D03*
Y975560D02*
D03*
Y980560D02*
D03*
Y985560D02*
D03*
Y990560D02*
D03*
Y995560D02*
D03*
Y1000560D02*
D03*
Y1005560D02*
D03*
Y1010560D02*
D03*
Y1015560D02*
D03*
X591780D02*
D03*
Y1010560D02*
D03*
Y1005560D02*
D03*
Y1000560D02*
D03*
Y995560D02*
D03*
Y990560D02*
D03*
Y985560D02*
D03*
Y980560D02*
D03*
Y975560D02*
D03*
Y970560D02*
D03*
Y965560D02*
D03*
Y960560D02*
D03*
D28*
X530030Y1022310D02*
D03*
X535030D02*
D03*
X540030D02*
D03*
X545030D02*
D03*
X550030D02*
D03*
X555030D02*
D03*
X560030D02*
D03*
X565030D02*
D03*
X570030D02*
D03*
X575030D02*
D03*
X580030D02*
D03*
X585030D02*
D03*
Y953810D02*
D03*
X580030D02*
D03*
X575030D02*
D03*
X570030D02*
D03*
X565030D02*
D03*
X560030D02*
D03*
X555030D02*
D03*
X550030D02*
D03*
X545030D02*
D03*
X540030D02*
D03*
X535030D02*
D03*
X530030D02*
D03*
D29*
X406360Y1060590D02*
D03*
Y1037590D02*
D03*
Y1014590D02*
D03*
D30*
X464860Y1037590D02*
D03*
D31*
X610870Y1069490D02*
D03*
X502920Y947270D02*
D03*
X483870D02*
D03*
X426720Y952650D02*
D03*
X483870Y924710D02*
D03*
Y911710D02*
D03*
X502920Y960270D02*
D03*
X483870D02*
D03*
X454660Y952650D02*
D03*
X614680Y915820D02*
D03*
X610870Y1056490D02*
D03*
X454660Y939650D02*
D03*
X614680Y902820D02*
D03*
X426720Y939650D02*
D03*
D32*
X501650Y1027080D02*
D03*
X610870Y1022700D02*
D03*
X382270Y1036670D02*
D03*
X632460Y1056990D02*
D03*
Y1034700D02*
D03*
X610870D02*
D03*
X501650Y1015080D02*
D03*
X382270Y1048670D02*
D03*
Y1002380D02*
D03*
X632460Y1022700D02*
D03*
Y1068990D02*
D03*
X382270Y1014380D02*
D03*
D33*
X583280Y929640D02*
D03*
X516890Y928370D02*
D03*
X595280Y929640D02*
D03*
Y908050D02*
D03*
X504890Y928370D02*
D03*
X504540Y906780D02*
D03*
X583280Y908050D02*
D03*
X516540Y906780D02*
D03*
D34*
X561340Y911370D02*
D03*
X539340Y928370D02*
D03*
X561340D02*
D03*
X539340Y911370D02*
D03*
D35*
X491260Y1054100D02*
D03*
D36*
X421958Y980440D02*
D03*
X449263Y970940D02*
D03*
Y989940D02*
D03*
X421958D02*
D03*
Y970940D02*
D03*
X449263Y980440D02*
D03*
D37*
X350850Y970140D02*
D03*
Y996140D02*
D03*
Y989640D02*
D03*
Y983140D02*
D03*
Y976640D02*
D03*
D38*
X583160Y1054100D02*
D03*
D39*
X323850Y993140D02*
D03*
Y973140D02*
D03*
D40*
X313690Y908050D02*
D03*
D41*
X339090D02*
D03*
X389890D02*
D03*
X364490D02*
D03*
D42*
X350850Y958140D02*
D03*
Y1008140D02*
D03*
D43*
X627380Y911860D02*
D03*
X601030Y999490D02*
D03*
X611677Y985983D02*
D03*
X536133Y1031560D02*
D03*
X563880Y944560D02*
D03*
X703305Y961470D02*
D03*
X797560Y1038860D02*
D03*
X742950Y1037590D02*
D03*
X822960Y953770D02*
D03*
X430530Y1028700D02*
D03*
X401320Y1027430D02*
D03*
X412750Y1000760D02*
D03*
X511810Y977900D02*
D03*
X483870Y935990D02*
D03*
X525780Y927100D02*
D03*
X788421Y1068390D02*
D03*
X732790Y1057910D02*
D03*
X621030Y1045210D02*
D03*
X631190D02*
D03*
X648600Y916299D02*
D03*
X604520Y929640D02*
D03*
X560070Y900430D02*
D03*
X513080Y1054100D02*
D03*
X501650Y1003300D02*
D03*
X303530Y1052830D02*
D03*
X398780Y1002030D02*
D03*
X487680Y900430D02*
D03*
X477520D02*
D03*
X433070Y980440D02*
D03*
X363220Y970280D02*
D03*
X467360Y900430D02*
D03*
X502920Y970280D02*
D03*
X483870D02*
D03*
X510540Y1004570D02*
D03*
X662940Y1057910D02*
D03*
X614680Y999410D02*
D03*
X744220Y1071880D02*
D03*
X748030Y1014730D02*
D03*
X726440Y985520D02*
D03*
X645160Y966470D02*
D03*
X695960Y1009650D02*
D03*
X728101Y976630D02*
D03*
X760730D02*
D03*
X648970Y955040D02*
D03*
X786130Y928370D02*
D03*
X590550Y1038860D02*
D03*
X363220Y1066800D02*
D03*
X361950Y1024890D02*
D03*
D44*
X579530Y1010060D02*
D03*
Y999060D02*
D03*
Y988060D02*
D03*
Y977060D02*
D03*
Y966060D02*
D03*
X568530Y1010060D02*
D03*
Y999060D02*
D03*
Y988060D02*
D03*
Y977060D02*
D03*
Y966060D02*
D03*
X557530Y1010060D02*
D03*
Y999060D02*
D03*
Y988060D02*
D03*
Y977060D02*
D03*
Y966060D02*
D03*
X546530Y1010060D02*
D03*
Y999060D02*
D03*
Y988060D02*
D03*
Y977060D02*
D03*
Y966060D02*
D03*
X535530Y1010060D02*
D03*
Y999060D02*
D03*
Y988060D02*
D03*
Y977060D02*
D03*
Y966060D02*
D03*
D45*
X651510Y976630D02*
D03*
X650240Y998220D02*
D03*
X382270Y1066800D02*
D03*
D46*
X485140Y1000047D02*
Y1030280D01*
X463783Y978690D02*
X485140Y1000047D01*
Y1030280D02*
X494990Y1040130D01*
X538468Y1037760D02*
X545780Y1030448D01*
Y1025831D02*
Y1030448D01*
X494990Y1040130D02*
X534670D01*
X537040Y1037760D02*
X538468D01*
X534670Y1040130D02*
X537040Y1037760D01*
X545030Y1025081D02*
X545780Y1025831D01*
X545030Y1022060D02*
Y1025081D01*
X457281Y978690D02*
X463783D01*
X456402Y977811D02*
X457281Y978690D01*
X456402Y975984D02*
Y977811D01*
X451358Y970940D02*
X456402Y975984D01*
X449263Y970940D02*
X451358D01*
X481640Y1031730D02*
X493540Y1043630D01*
X481640Y1001497D02*
Y1031730D01*
X462333Y982190D02*
X481640Y1001497D01*
X549280Y1025831D02*
Y1031898D01*
X539918Y1041260D02*
X549280Y1031898D01*
X538490Y1041260D02*
X539918D01*
X536120Y1043630D02*
X538490Y1041260D01*
X493540Y1043630D02*
X536120D01*
X550030Y1022060D02*
Y1025081D01*
X549280Y1025831D02*
X550030Y1025081D01*
X451358Y989940D02*
X456402Y984896D01*
X449263Y989940D02*
X451358D01*
X457281Y982190D02*
X462333D01*
X456402Y983069D02*
Y984896D01*
Y983069D02*
X457281Y982190D01*
M02*
