G04*
G04 #@! TF.GenerationSoftware,Altium Limited,Altium Designer,23.10.1 (27)*
G04*
G04 Layer_Color=128*
%FSLAX44Y44*%
%MOMM*%
G71*
G04*
G04 #@! TF.SameCoordinates,AB5FA82C-F65C-42C8-8390-C989D648E836*
G04*
G04*
G04 #@! TF.FilePolarity,Positive*
G04*
G01*
G75*
%ADD23R,0.6000X0.9000*%
%ADD24R,0.8000X0.9500*%
%ADD31R,0.9500X0.8000*%
%ADD32R,0.9000X0.7500*%
%ADD33R,0.7500X0.9000*%
%ADD47R,0.6000X0.9500*%
%ADD48O,0.6000X1.9000*%
%ADD51R,0.4025X0.3131*%
%ADD52R,0.4025X0.3131*%
%ADD53R,0.3131X0.4025*%
D23*
X478550Y1013990D02*
D03*
X463550D02*
D03*
X697350Y1026160D02*
D03*
X712350D02*
D03*
D24*
X743100D02*
D03*
X774850Y911860D02*
D03*
X430380Y1014730D02*
D03*
X374500Y949960D02*
D03*
X730100Y1026160D02*
D03*
X761850Y911860D02*
D03*
X443380Y1014730D02*
D03*
X387500Y949960D02*
D03*
D31*
X810260Y928520D02*
D03*
Y915520D02*
D03*
X638810Y924710D02*
D03*
Y911710D02*
D03*
X811530Y953620D02*
D03*
Y966620D02*
D03*
D32*
X811340Y1029810D02*
D03*
Y986410D02*
D03*
X711200Y985870D02*
D03*
X689610D02*
D03*
Y969010D02*
D03*
X422910Y991520D02*
D03*
X811340Y998410D02*
D03*
Y1017810D02*
D03*
X711200Y997870D02*
D03*
X689610D02*
D03*
Y957010D02*
D03*
X422910Y979520D02*
D03*
D33*
X785590Y1026350D02*
D03*
X401670Y1014730D02*
D03*
X381920D02*
D03*
X773590Y1026350D02*
D03*
X413670Y1014730D02*
D03*
X369920D02*
D03*
D47*
X701549Y928690D02*
D03*
Y905190D02*
D03*
X680848D02*
D03*
Y928690D02*
D03*
X722250Y905190D02*
D03*
Y928690D02*
D03*
X742950Y905190D02*
D03*
Y928690D02*
D03*
X660148D02*
D03*
Y905190D02*
D03*
D48*
X747840Y995240D02*
D03*
X760540D02*
D03*
X773240D02*
D03*
X785940D02*
D03*
X747840Y948240D02*
D03*
X760540D02*
D03*
X773240D02*
D03*
X785940D02*
D03*
D51*
X375100Y991710D02*
D03*
Y971710D02*
D03*
X399600D02*
D03*
Y991710D02*
D03*
D52*
X375100Y986710D02*
D03*
Y981710D02*
D03*
Y976710D02*
D03*
X399600D02*
D03*
Y981710D02*
D03*
Y986710D02*
D03*
D53*
X382350Y969460D02*
D03*
X387350D02*
D03*
X392350D02*
D03*
Y993960D02*
D03*
X387350D02*
D03*
X382350D02*
D03*
M02*
