G04*
G04 #@! TF.GenerationSoftware,Altium Limited,Altium Designer,23.10.1 (27)*
G04*
G04 Layer_Color=16711935*
%FSLAX44Y44*%
%MOMM*%
G71*
G04*
G04 #@! TF.SameCoordinates,AB5FA82C-F65C-42C8-8390-C989D648E836*
G04*
G04*
G04 #@! TF.FilePolarity,Negative*
G04*
G01*
G75*
%ADD23R,0.6000X0.9000*%
%ADD24R,0.8000X0.9500*%
%ADD31R,0.9500X0.8000*%
%ADD32R,0.9000X0.7500*%
%ADD33R,0.7500X0.9000*%
%ADD40R,1.5500X1.5500*%
%ADD41C,1.5500*%
%ADD42C,1.4500*%
%ADD43C,0.6000*%
%ADD44C,0.5000*%
%ADD45C,1.2700*%
%ADD47R,0.6000X0.9500*%
%ADD48O,0.6000X1.9000*%
%ADD49R,0.3500X0.4500*%
%ADD50R,0.4500X0.3500*%
D23*
X478550Y1013990D02*
D03*
X463550D02*
D03*
X697350Y1026160D02*
D03*
X712350D02*
D03*
D24*
X743100D02*
D03*
X774850Y911860D02*
D03*
X430380Y1014730D02*
D03*
X374500Y949960D02*
D03*
X730100Y1026160D02*
D03*
X761850Y911860D02*
D03*
X443380Y1014730D02*
D03*
X387500Y949960D02*
D03*
D31*
X810260Y928520D02*
D03*
Y915520D02*
D03*
X638810Y924710D02*
D03*
Y911710D02*
D03*
X811530Y953620D02*
D03*
Y966620D02*
D03*
D32*
X811340Y1029810D02*
D03*
Y986410D02*
D03*
X711200Y985870D02*
D03*
X689610D02*
D03*
Y969010D02*
D03*
X422910Y991520D02*
D03*
X811340Y998410D02*
D03*
Y1017810D02*
D03*
X711200Y997870D02*
D03*
X689610D02*
D03*
Y957010D02*
D03*
X422910Y979520D02*
D03*
D33*
X785590Y1026350D02*
D03*
X401670Y1014730D02*
D03*
X381920D02*
D03*
X773590Y1026350D02*
D03*
X413670Y1014730D02*
D03*
X369920D02*
D03*
D40*
X313690Y908050D02*
D03*
D41*
X339090D02*
D03*
X389890D02*
D03*
X364490D02*
D03*
D42*
X350850Y958140D02*
D03*
Y1008140D02*
D03*
D43*
X627380Y911860D02*
D03*
X601030Y999490D02*
D03*
X611677Y985983D02*
D03*
X536133Y1031560D02*
D03*
X563880Y944560D02*
D03*
X703305Y961470D02*
D03*
X797560Y1038860D02*
D03*
X742950Y1037590D02*
D03*
X822960Y953770D02*
D03*
X430530Y1028700D02*
D03*
X401320Y1027430D02*
D03*
X412750Y1000760D02*
D03*
X511810Y977900D02*
D03*
X483870Y935990D02*
D03*
X525780Y927100D02*
D03*
X788421Y1068390D02*
D03*
X732790Y1057910D02*
D03*
X621030Y1045210D02*
D03*
X631190D02*
D03*
X648600Y916299D02*
D03*
X604520Y929640D02*
D03*
X560070Y900430D02*
D03*
X513080Y1054100D02*
D03*
X501650Y1003300D02*
D03*
X303530Y1052830D02*
D03*
X398780Y1002030D02*
D03*
X487680Y900430D02*
D03*
X477520D02*
D03*
X433070Y980440D02*
D03*
X363220Y970280D02*
D03*
X467360Y900430D02*
D03*
X502920Y970280D02*
D03*
X483870D02*
D03*
X510540Y1004570D02*
D03*
X662940Y1057910D02*
D03*
X614680Y999410D02*
D03*
X744220Y1071880D02*
D03*
X748030Y1014730D02*
D03*
X726440Y985520D02*
D03*
X645160Y966470D02*
D03*
X695960Y1009650D02*
D03*
X728101Y976630D02*
D03*
X760730D02*
D03*
X648970Y955040D02*
D03*
X786130Y928370D02*
D03*
X590550Y1038860D02*
D03*
X363220Y1066800D02*
D03*
X361950Y1024890D02*
D03*
D44*
X579530Y1010060D02*
D03*
Y999060D02*
D03*
Y988060D02*
D03*
Y977060D02*
D03*
Y966060D02*
D03*
X568530Y1010060D02*
D03*
Y999060D02*
D03*
Y988060D02*
D03*
Y977060D02*
D03*
Y966060D02*
D03*
X557530Y1010060D02*
D03*
Y999060D02*
D03*
Y988060D02*
D03*
Y977060D02*
D03*
Y966060D02*
D03*
X546530Y1010060D02*
D03*
Y999060D02*
D03*
Y988060D02*
D03*
Y977060D02*
D03*
Y966060D02*
D03*
X535530Y1010060D02*
D03*
Y999060D02*
D03*
Y988060D02*
D03*
Y977060D02*
D03*
Y966060D02*
D03*
D45*
X651510Y976630D02*
D03*
X650240Y998220D02*
D03*
X382270Y1066800D02*
D03*
D47*
X701549Y928690D02*
D03*
Y905190D02*
D03*
X680848D02*
D03*
Y928690D02*
D03*
X722250Y905190D02*
D03*
Y928690D02*
D03*
X742950Y905190D02*
D03*
Y928690D02*
D03*
X660148D02*
D03*
Y905190D02*
D03*
D48*
X747840Y995240D02*
D03*
X760540D02*
D03*
X773240D02*
D03*
X785940D02*
D03*
X747840Y948240D02*
D03*
X760540D02*
D03*
X773240D02*
D03*
X785940D02*
D03*
D49*
X382350Y993960D02*
D03*
X392350Y969460D02*
D03*
Y993960D02*
D03*
X387350D02*
D03*
X382350Y969460D02*
D03*
X387350D02*
D03*
D50*
X399600Y991710D02*
D03*
X375100Y986710D02*
D03*
X399600Y971710D02*
D03*
X375100Y976710D02*
D03*
X399600D02*
D03*
X375100Y991710D02*
D03*
Y981710D02*
D03*
Y971710D02*
D03*
X399600Y981710D02*
D03*
Y986710D02*
D03*
M02*
