G04*
G04 #@! TF.GenerationSoftware,Altium Limited,Altium Designer,23.10.1 (27)*
G04*
G04 Layer_Color=8421504*
%FSLAX44Y44*%
%MOMM*%
G71*
G04*
G04 #@! TF.SameCoordinates,AB5FA82C-F65C-42C8-8390-C989D648E836*
G04*
G04*
G04 #@! TF.FilePolarity,Positive*
G04*
G01*
G75*
%ADD16C,0.5000*%
%ADD17R,1.6800X0.8000*%
%ADD18R,1.3000X1.2900*%
%ADD19R,1.5000X1.7000*%
%ADD20R,1.5000X1.6000*%
%ADD21R,1.4000X1.2900*%
%ADD22R,1.7000X1.5000*%
%ADD23R,0.6000X0.9000*%
%ADD24R,0.8000X0.9500*%
%ADD25R,0.9000X0.6000*%
%ADD26R,5.6000X5.6000*%
%ADD27R,0.8500X0.2500*%
%ADD28R,0.2500X0.8500*%
%ADD29R,2.1500X1.0000*%
%ADD30R,2.1500X3.2500*%
%ADD31R,0.9500X0.8000*%
%ADD32R,0.9000X0.7500*%
%ADD33R,0.7500X0.9000*%
%ADD34R,1.4000X1.2000*%
%ADD35R,2.1800X1.6000*%
%ADD36R,0.9779X0.5588*%
%ADD37R,1.3500X0.4000*%
%ADD38R,2.2000X1.6000*%
%ADD39R,1.9000X1.5000*%
G36*
X333350Y947140D02*
X314350D01*
Y960140D01*
X333350D01*
Y947140D01*
D02*
G37*
G36*
X328350Y942140D02*
X319350Y942140D01*
Y947140D01*
X328350D01*
Y942140D01*
D02*
G37*
G36*
X328350Y1019140D02*
X319350D01*
Y1024140D01*
X328350Y1024140D01*
Y1019140D01*
D02*
G37*
G36*
X333350Y1006140D02*
X314350D01*
Y1019140D01*
X333350D01*
Y1006140D01*
D02*
G37*
D16*
X321850Y1019140D02*
G03*
X321850Y1019140I-2500J0D01*
G01*
X330850D02*
G03*
X330850Y1019140I-2500J0D01*
G01*
X321850Y947140D02*
G03*
X321850Y947140I-2500J0D01*
G01*
X330850D02*
G03*
X330850Y947140I-2500J0D01*
G01*
D17*
X670370Y976820D02*
D03*
Y998820D02*
D03*
Y965820D02*
D03*
Y1009820D02*
D03*
Y987820D02*
D03*
Y954820D02*
D03*
Y943820D02*
D03*
Y1020820D02*
D03*
D18*
X685970Y1041370D02*
D03*
D19*
X669470Y908320D02*
D03*
D20*
Y1034920D02*
D03*
D21*
X759970Y1041370D02*
D03*
D22*
X817970Y1040320D02*
D03*
Y905320D02*
D03*
D23*
X633600Y902970D02*
D03*
X648600D02*
D03*
X773550Y1057910D02*
D03*
X788550D02*
D03*
X704970D02*
D03*
X719970D02*
D03*
X335410Y1052830D02*
D03*
X320410D02*
D03*
D24*
X757070Y1057910D02*
D03*
X744070D02*
D03*
X820570D02*
D03*
X676760D02*
D03*
X363370Y1052830D02*
D03*
X350370D02*
D03*
X689760Y1057910D02*
D03*
X807570D02*
D03*
D25*
X454660Y923290D02*
D03*
Y908290D02*
D03*
X426720Y923410D02*
D03*
Y908410D02*
D03*
D26*
X557530Y988060D02*
D03*
D27*
X523280Y960560D02*
D03*
Y965560D02*
D03*
Y970560D02*
D03*
Y975560D02*
D03*
Y980560D02*
D03*
Y985560D02*
D03*
Y990560D02*
D03*
Y995560D02*
D03*
Y1000560D02*
D03*
Y1005560D02*
D03*
Y1010560D02*
D03*
Y1015560D02*
D03*
X591780D02*
D03*
Y1010560D02*
D03*
Y1005560D02*
D03*
Y1000560D02*
D03*
Y995560D02*
D03*
Y990560D02*
D03*
Y985560D02*
D03*
Y980560D02*
D03*
Y975560D02*
D03*
Y970560D02*
D03*
Y965560D02*
D03*
Y960560D02*
D03*
D28*
X530030Y1022310D02*
D03*
X535030D02*
D03*
X540030D02*
D03*
X545030D02*
D03*
X550030D02*
D03*
X555030D02*
D03*
X560030D02*
D03*
X565030D02*
D03*
X570030D02*
D03*
X575030D02*
D03*
X580030D02*
D03*
X585030D02*
D03*
Y953810D02*
D03*
X580030D02*
D03*
X575030D02*
D03*
X570030D02*
D03*
X565030D02*
D03*
X560030D02*
D03*
X555030D02*
D03*
X550030D02*
D03*
X545030D02*
D03*
X540030D02*
D03*
X535030D02*
D03*
X530030D02*
D03*
D29*
X406360Y1060590D02*
D03*
Y1037590D02*
D03*
Y1014590D02*
D03*
D30*
X464860Y1037590D02*
D03*
D31*
X610870Y1069490D02*
D03*
X502920Y947270D02*
D03*
X483870D02*
D03*
X426720Y952650D02*
D03*
X483870Y924710D02*
D03*
Y911710D02*
D03*
X502920Y960270D02*
D03*
X483870D02*
D03*
X454660Y952650D02*
D03*
X614680Y915820D02*
D03*
X610870Y1056490D02*
D03*
X454660Y939650D02*
D03*
X614680Y902820D02*
D03*
X426720Y939650D02*
D03*
D32*
X501650Y1027080D02*
D03*
X610870Y1022700D02*
D03*
X382270Y1036670D02*
D03*
X632460Y1056990D02*
D03*
Y1034700D02*
D03*
X610870D02*
D03*
X501650Y1015080D02*
D03*
X382270Y1048670D02*
D03*
Y1002380D02*
D03*
X632460Y1022700D02*
D03*
Y1068990D02*
D03*
X382270Y1014380D02*
D03*
D33*
X583280Y929640D02*
D03*
X516890Y928370D02*
D03*
X595280Y929640D02*
D03*
Y908050D02*
D03*
X504890Y928370D02*
D03*
X504540Y906780D02*
D03*
X583280Y908050D02*
D03*
X516540Y906780D02*
D03*
D34*
X561340Y911370D02*
D03*
X539340Y928370D02*
D03*
X561340D02*
D03*
X539340Y911370D02*
D03*
D35*
X491260Y1054100D02*
D03*
D36*
X421958Y980440D02*
D03*
X449263Y970940D02*
D03*
Y989940D02*
D03*
X421958D02*
D03*
Y970940D02*
D03*
X449263Y980440D02*
D03*
D37*
X350850Y970140D02*
D03*
Y996140D02*
D03*
Y989640D02*
D03*
Y983140D02*
D03*
Y976640D02*
D03*
D38*
X583160Y1054100D02*
D03*
D39*
X323850Y993140D02*
D03*
Y973140D02*
D03*
M02*
