G04*
G04 #@! TF.GenerationSoftware,Altium Limited,Altium Designer,23.10.1 (27)*
G04*
G04 Layer_Color=65535*
%FSLAX44Y44*%
%MOMM*%
G71*
G04*
G04 #@! TF.SameCoordinates,AB5FA82C-F65C-42C8-8390-C989D648E836*
G04*
G04*
G04 #@! TF.FilePolarity,Positive*
G04*
G01*
G75*
%ADD10C,0.2500*%
%ADD11C,0.2000*%
%ADD12C,0.4000*%
%ADD13C,0.1524*%
%ADD14C,0.0762*%
%ADD15C,0.2540*%
D10*
X657720Y943820D02*
G03*
X657720Y943820I-1250J0D01*
G01*
X523280Y944560D02*
G03*
X523280Y944560I-1250J0D01*
G01*
X407610Y1071090D02*
G03*
X407610Y1071090I-1250J0D01*
G01*
X528090Y911370D02*
G03*
X528090Y911370I-1250J0D01*
G01*
X364350Y996140D02*
G03*
X364350Y996140I-1250J0D01*
G01*
X600910Y1054100D02*
G03*
X600910Y1054100I-1250J0D01*
G01*
D11*
X823027Y1028799D02*
G03*
X819220Y930551I149206J-54979D01*
G01*
X680970Y901320D02*
X805470D01*
X696470Y1044320D02*
X748970D01*
X770970D02*
X805470D01*
X819220Y918720D02*
Y930550D01*
X594530Y951060D02*
Y955310D01*
X590280Y951060D02*
X594530D01*
Y1020810D02*
Y1025060D01*
X590280D02*
X594530D01*
X520530D02*
X524780D01*
X520530Y1020810D02*
Y1025060D01*
Y951060D02*
Y955310D01*
Y951060D02*
X524780D01*
X420110Y1004090D02*
Y1071090D01*
X451110Y1004090D02*
Y1071090D01*
X420110D02*
X451110D01*
X420110Y1004090D02*
X451110D01*
X404490Y895350D02*
Y920750D01*
X299090Y895350D02*
X404490D01*
X299090D02*
Y920750D01*
X404490D01*
X623960Y1019950D02*
Y1037450D01*
X640990Y1020003D02*
Y1037503D01*
X373740Y999577D02*
Y1017077D01*
X390770Y999630D02*
Y1017130D01*
X390800Y1033973D02*
Y1051473D01*
X373770Y1033920D02*
Y1051420D01*
X501737Y915310D02*
X519237D01*
X501790Y898280D02*
X519290D01*
X580583Y899520D02*
X598083D01*
X580530Y916550D02*
X598030D01*
X534340Y901620D02*
X566340D01*
X534340Y938120D02*
X566340D01*
X580583Y921110D02*
X598083D01*
X580530Y938140D02*
X598030D01*
X502087Y936900D02*
X519587D01*
X502140Y919870D02*
X519640D01*
X619400Y1020003D02*
Y1037503D01*
X602370Y1019950D02*
Y1037450D01*
X493120Y1012277D02*
Y1029777D01*
X510150Y1012330D02*
Y1029830D01*
X302351Y1020590D02*
X310470D01*
X337230Y1020593D02*
X349303D01*
Y1019280D02*
Y1020593D01*
X349350Y945687D02*
Y946990D01*
X337230Y945687D02*
X349350D01*
X302350D02*
X310470D01*
X302351Y945690D02*
Y1020590D01*
X507210Y1036600D02*
X567210D01*
Y1071600D01*
X507210Y1036600D02*
Y1071600D01*
X567210D01*
X623930Y1054187D02*
Y1071687D01*
X640960Y1054240D02*
Y1071740D01*
X631272Y919210D02*
Y916211D01*
X632271Y915211D01*
X635270D01*
Y919210D01*
X641268Y920209D02*
X640269Y921209D01*
X638269D01*
X637270Y920209D01*
Y916211D01*
X638269Y915211D01*
X640269D01*
X641268Y916211D01*
X360140Y932558D02*
X362139D01*
X361140D01*
Y926560D01*
X360140D01*
X362139D01*
X368137Y932558D02*
X366138D01*
X365138Y931558D01*
Y927560D01*
X366138Y926560D01*
X368137D01*
X369137Y927560D01*
Y931558D01*
X368137Y932558D01*
X386999Y931558D02*
X385999Y932558D01*
X384000D01*
X383000Y931558D01*
Y927560D01*
X384000Y926560D01*
X385999D01*
X386999Y927560D01*
X388998Y932558D02*
Y926560D01*
X392997D01*
X394996Y932558D02*
Y926560D01*
Y928559D01*
X398995Y932558D01*
X395996Y929559D01*
X398995Y926560D01*
X334929Y931558D02*
X333929Y932558D01*
X331930D01*
X330930Y931558D01*
Y927560D01*
X331930Y926560D01*
X333929D01*
X334929Y927560D01*
Y929559D01*
X332929D01*
X336928Y926560D02*
Y932558D01*
X340927Y926560D01*
Y932558D01*
X342926D02*
Y926560D01*
X345925D01*
X346925Y927560D01*
Y931558D01*
X345925Y932558D01*
X342926D01*
X304260Y931558D02*
X305260Y932558D01*
X307259D01*
X308259Y931558D01*
Y930559D01*
X307259Y929559D01*
X306259D01*
X307259D01*
X308259Y928559D01*
Y927560D01*
X307259Y926560D01*
X305260D01*
X304260Y927560D01*
X310258Y932558D02*
Y928559D01*
X312257Y926560D01*
X314257Y928559D01*
Y932558D01*
X316256Y931558D02*
X317256Y932558D01*
X319255D01*
X320255Y931558D01*
Y930559D01*
X319255Y929559D01*
X318256D01*
X319255D01*
X320255Y928559D01*
Y927560D01*
X319255Y926560D01*
X317256D01*
X316256Y927560D01*
X712836Y1073085D02*
X711836Y1074085D01*
X709837D01*
X708838Y1073085D01*
Y1072086D01*
X709837Y1071086D01*
X711836D01*
X712836Y1070086D01*
Y1069087D01*
X711836Y1068087D01*
X709837D01*
X708838Y1069087D01*
X714836Y1074085D02*
Y1068087D01*
X717835D01*
X718834Y1069087D01*
Y1073085D01*
X717835Y1074085D01*
X714836D01*
X438961Y908412D02*
X444959D01*
Y911412D01*
X443959Y912411D01*
X439961D01*
X438961Y911412D01*
Y908412D01*
X444959Y914410D02*
Y916410D01*
Y915410D01*
X438961D01*
X439961Y914410D01*
X444959Y923408D02*
Y919409D01*
X440960Y923408D01*
X439961D01*
X438961Y922408D01*
Y920408D01*
X439961Y919409D01*
X766703Y1067611D02*
Y1073609D01*
X768702Y1071610D01*
X770701Y1073609D01*
Y1067611D01*
X776699Y1073609D02*
X772701D01*
Y1067611D01*
X776699D01*
X772701Y1070610D02*
X774700D01*
X778699Y1067611D02*
Y1073609D01*
X780698Y1071610D01*
X782697Y1073609D01*
Y1067611D01*
X411021Y910912D02*
X417019D01*
Y913911D01*
X416019Y914910D01*
X412021D01*
X411021Y913911D01*
Y910912D01*
X416019Y916910D02*
X417019Y917909D01*
Y919909D01*
X416019Y920908D01*
X412021D01*
X411021Y919909D01*
Y917909D01*
X412021Y916910D01*
X413020D01*
X414020Y917909D01*
Y920908D01*
X318393Y1065530D02*
X322391D01*
X320392Y1067529D02*
Y1063531D01*
X328389Y1068529D02*
X324391D01*
Y1065530D01*
X326390Y1066530D01*
X327390D01*
X328389Y1065530D01*
Y1063531D01*
X327390Y1062531D01*
X325390D01*
X324391Y1063531D01*
X330389Y1068529D02*
Y1064530D01*
X332388Y1062531D01*
X334387Y1064530D01*
Y1068529D01*
D12*
X656340Y897890D02*
Y908050D01*
X796290Y1052830D02*
Y1062990D01*
X727710Y1052830D02*
Y1062990D01*
X312670Y1047750D02*
Y1057910D01*
X449580Y900550D02*
X459740D01*
X421640Y900670D02*
X431800D01*
D13*
X425577Y963930D02*
X445643D01*
X425577Y996950D02*
X445643D01*
D14*
X416560Y998220D02*
Y999553D01*
X417893D01*
Y998220D01*
X416560D01*
D15*
X437691Y938652D02*
Y940652D01*
Y939652D01*
X443689D01*
Y938652D01*
Y940652D01*
Y947650D02*
Y943651D01*
X439690Y947650D01*
X438691D01*
X437691Y946650D01*
Y944650D01*
X438691Y943651D01*
Y953648D02*
X437691Y952648D01*
Y950648D01*
X438691Y949649D01*
X442689D01*
X443689Y950648D01*
Y952648D01*
X442689Y953648D01*
X610993Y927911D02*
Y933909D01*
X613992D01*
X614991Y932909D01*
Y930910D01*
X613992Y929910D01*
X610993D01*
X612992D02*
X614991Y927911D01*
X616991D02*
X618990D01*
X617990D01*
Y933909D01*
X616991Y932909D01*
X621989D02*
X622989Y933909D01*
X624988D01*
X625988Y932909D01*
Y928911D01*
X624988Y927911D01*
X622989D01*
X621989Y928911D01*
Y932909D01*
X346792Y1065071D02*
Y1071069D01*
X349791D01*
X350790Y1070069D01*
Y1068070D01*
X349791Y1067070D01*
X346792D01*
X348791D02*
X350790Y1065071D01*
X355789D02*
Y1071069D01*
X352790Y1068070D01*
X356788D01*
X410751Y938153D02*
X409751Y939152D01*
Y941152D01*
X410751Y942151D01*
X411750D01*
X412750Y941152D01*
Y940152D01*
Y941152D01*
X413750Y942151D01*
X414749D01*
X415749Y941152D01*
Y939152D01*
X414749Y938153D01*
X409751Y944151D02*
X413750D01*
X415749Y946150D01*
X413750Y948149D01*
X409751D01*
X410751Y950149D02*
X409751Y951148D01*
Y953148D01*
X410751Y954147D01*
X411750D01*
X412750Y953148D01*
Y952148D01*
Y953148D01*
X413750Y954147D01*
X414749D01*
X415749Y953148D01*
Y951148D01*
X414749Y950149D01*
X472899Y914211D02*
X466901D01*
Y917210D01*
X467901Y918210D01*
X469900D01*
X470900Y917210D01*
Y914211D01*
Y916211D02*
X472899Y918210D01*
Y920209D02*
Y922209D01*
Y921209D01*
X466901D01*
X467901Y920209D01*
X328930Y1038049D02*
X326931D01*
X327930D01*
Y1033051D01*
X326931Y1032051D01*
X325931D01*
X324931Y1033051D01*
X330929Y1032051D02*
X332929D01*
X331929D01*
Y1038049D01*
X330929Y1037049D01*
X363761Y1037860D02*
X362761Y1036861D01*
Y1034861D01*
X363761Y1033862D01*
X367759D01*
X368759Y1034861D01*
Y1036861D01*
X367759Y1037860D01*
X362761Y1043858D02*
X363761Y1041859D01*
X365760Y1039860D01*
X367759D01*
X368759Y1040859D01*
Y1042859D01*
X367759Y1043858D01*
X366760D01*
X365760Y1042859D01*
Y1039860D01*
X381270Y991329D02*
X380271Y992329D01*
X378271D01*
X377272Y991329D01*
Y987331D01*
X378271Y986331D01*
X380271D01*
X381270Y987331D01*
X387268Y992329D02*
X383270D01*
Y989330D01*
X385269Y990330D01*
X386269D01*
X387268Y989330D01*
Y987331D01*
X386269Y986331D01*
X384269D01*
X383270Y987331D01*
M02*
